<svg width="30" height="21" viewBox="0 0 30 21" fill="none" xmlns="http://www.w3.org/2000/svg">
<path d="M29.6232 9.05976C29.4311 8.85293 28.0518 7.16777 27.3082 6.25957C26.9127 5.77676 26.6004 5.39531 26.4691 5.23711L26.4586 5.22422L26.4469 5.21191C26.141 4.87031 25.7062 4.47891 25.0535 4.47891C24.9474 4.48027 24.8415 4.48889 24.7365 4.50469C24.7148 4.50762 24.6926 4.51113 24.6691 4.51348C24.5256 4.5293 24.0797 4.60137 23.0203 4.77598C22.2 4.91016 20.9631 5.11406 20.7756 5.13164L20.734 5.13516L20.6936 5.14277C20.1076 5.24707 19.7197 5.50723 19.5475 5.91563C19.4566 6.13125 19.3588 6.56895 19.7197 7.0793C19.8094 7.20938 20.1199 7.63945 20.6537 8.37832C21.0088 8.87051 21.4078 9.42246 21.7523 9.90176L15.2285 11.4258L8.82773 0.94043L8.81601 0.920508L8.80254 0.901172L8.77676 0.863086C8.51484 0.478711 8.18906 0 7.24804 0C7.18183 0 7.11269 3.57977e-08 7.03535 0.00644535C6.76582 0.0210938 5.78027 0.0984376 4.63945 0.188672C3.38027 0.287695 1.65703 0.423047 1.4332 0.428906H1.39043L1.34414 0.433594C0.808592 0.485742 0.420115 0.703125 0.189842 1.07813C-0.193947 1.70449 0.106638 2.40762 0.205076 2.63848C0.402537 3.10547 2.20078 6.89648 3.78691 10.2428C4.8416 12.4658 5.93027 14.7645 6.01933 14.9684C6.17595 15.3493 6.44408 15.6739 6.78853 15.8997C7.13299 16.1254 7.53765 16.2418 7.94941 16.2334C8.14373 16.2325 8.33741 16.2109 8.52715 16.1689H8.53945L8.55117 16.166C9.36328 15.968 11.9396 15.3141 13.7777 14.8424C13.8891 15.0369 14.0062 15.2426 14.1293 15.4541C15.4143 17.71 16.35 19.3418 16.6582 19.7584C16.8164 19.9805 17.2852 20.625 18.1676 20.625C18.4875 20.625 18.7805 20.543 19.0898 20.4557L19.1795 20.4305H19.1865C19.8035 20.2547 28.016 17.3742 28.4367 17.1873L28.4496 17.1814C28.7684 17.0402 29.25 16.827 29.3977 16.2791C29.4943 15.9205 29.4082 15.5566 29.141 15.1975L29.1369 15.1922L29.1328 15.1869C29.083 15.1225 28.8984 14.8816 28.6482 14.5482C28.1133 13.841 27.249 12.6984 26.4896 11.7041C27.5074 11.4404 28.7631 11.1117 29.0314 11.0273C29.7035 10.8264 29.9068 10.401 29.9689 10.1643C30.0152 9.97969 30.0756 9.50801 29.6232 9.05976ZM10.8732 12.4693C9.82969 12.7137 9.10254 12.8842 8.65312 12.9908C8.2623 12.2092 7.49648 10.6676 6.74883 9.16289C5.00625 5.65195 4.10625 3.84434 3.63281 2.89922L4.11035 2.8582C4.89199 2.79082 5.9625 2.69883 6.5584 2.64902C7.54043 4.30488 10.9131 9.99082 12.201 12.1588L10.8732 12.4693ZM21.3123 16.374C19.8937 16.8428 19.125 17.0988 18.7096 17.2377C18.3404 16.6318 17.5283 15.2736 16.807 14.0625L23.5863 12.3352C23.8793 12.7342 24.44 13.4906 25.5469 14.9678C24.4881 15.3217 22.7227 15.9064 21.3123 16.374ZM24.5859 9.24727L23.1937 7.3998C23.9947 7.25977 24.4559 7.17891 24.726 7.13027L25.4291 8.00215L26.1287 8.87051C25.6482 8.98711 25.0893 9.12363 24.5859 9.24727Z" fill="#FF0000"/>
</svg>
