<svg width="50" height="50" viewBox="0 0 50 50" fill="none" xmlns="http://www.w3.org/2000/svg">
<circle cx="25" cy="25" r="25" fill="#8892BF"/>
<path d="M22.5612 15.625H25.1863L24.4444 19.5691H26.8032C28.0967 19.5968 29.0604 19.8859 29.6946 20.4364C30.3413 20.9869 30.5315 22.0334 30.2652 23.5751L28.9907 30.4515H26.3276L27.5451 23.8849C27.6717 23.1964 27.6337 22.7078 27.4309 22.4188C27.2281 22.1297 26.7906 21.9851 26.1184 21.9851L24.0069 21.9645L22.4471 30.4515H19.822L22.5612 15.625Z" fill="white"/>
<path fill-rule="evenodd" clip-rule="evenodd" d="M10.5327 19.5692H15.6307C17.127 19.5828 18.2112 20.0511 18.8835 20.9733C19.5557 21.8956 19.7775 23.1552 19.5492 24.7522C19.4606 25.482 19.2639 26.1977 18.9596 26.8998C18.6678 27.6019 18.2622 28.235 17.7421 28.7996C17.1079 29.5153 16.4296 29.9696 15.7067 30.1625C14.9839 30.3553 14.2356 30.4516 13.4621 30.4516H11.1794L10.4566 34.375H7.8125L10.5327 19.5692ZM11.617 28.1181L12.7545 21.9439H13.1387C13.2784 21.9439 13.4241 21.9369 13.5762 21.9232C14.5909 21.9096 15.434 22.0128 16.1062 22.233C16.791 22.4531 17.0193 23.2861 16.791 24.7316C16.5121 26.4525 15.9666 27.4573 15.1551 27.7464C14.3436 28.0219 13.329 28.1524 12.1115 28.1388H11.8452C11.7691 28.1388 11.693 28.1318 11.617 28.1181Z" fill="white"/>
<path fill-rule="evenodd" clip-rule="evenodd" d="M38.1821 19.5692H33.0841L30.3639 34.375H33.008L33.7309 30.4516H36.0136C36.787 30.4516 37.5353 30.3553 38.2582 30.1625C38.981 29.9696 39.6594 29.5153 40.2936 28.7996C40.8136 28.235 41.2192 27.6019 41.511 26.8998C41.8153 26.1977 42.012 25.482 42.1007 24.7522C42.3289 23.1552 42.1071 21.8956 41.4349 20.9733C40.7627 20.0511 39.6784 19.5828 38.1821 19.5692ZM35.3059 21.9439L34.1684 28.1181C34.2445 28.1318 34.3206 28.1388 34.3967 28.1388H34.663C35.8804 28.1524 36.895 28.0219 37.7065 27.7464C38.518 27.4573 39.0636 26.4525 39.3424 24.7316C39.5707 23.2861 39.3425 22.4531 38.6576 22.233C37.9854 22.0128 37.1423 21.9096 36.1277 21.9232C35.9755 21.9369 35.8298 21.9439 35.6902 21.9439H35.3059Z" fill="white"/>
</svg>
